<svg version="1.2" xmlns="http://www.w3.org/2000/svg" viewBox="0 0 1552 1552" width="1552" height="1552">
	<title>2021 Integrated Report-1-pdf-svg</title>

	<style>
		.s0 { fill: #000000 } 
	</style>
	<g id="Clip-Path: Page 1" clip-path="url(#cp1)">
		<g id="Page 1">
			<path id="Path 16" class="s0" d="m997.3 662.7c-30.4-25.1-270.9-93.9-471.7-141.5-1.3 156 7.9 324 27.7 353.1 29.1 25.2 270.9 94 471.8 141.6 2.6-154.8-7.9-324.1-27.8-353.2z"/>
			<path id="Path 17" fill-rule="evenodd" class="s0" d="m776 1551.6c-428.6 0-775.1-346.8-775.1-775.8 0-429 346.5-775.8 775.1-775.8 428.6 0 775 346.8 775 775.8 0 429-346.4 775.8-775 775.8zm522.6-1115.1c-48.9-42.3-695.1-205-745.3-187.8-17.2 15.9-26.4 138.9-27.7 272.5-136.1-31.8-253.8-54.3-273.6-47.7-38.3 35.8-38.3 572.8 0 627 48.9 42.4 695.1 205.1 745.3 187.9 17.2-15.9 26.5-138.9 27.8-272.5 136.1 31.7 253.7 54.2 273.5 47.6 38.4-35.7 38.4-571.4 0-627z"/>
		</g>
	</g>
</svg>